<svg width="155" height="96" viewBox="0 0 155 96" fill="none" xmlns="http://www.w3.org/2000/svg">
<g clip-path="url(#clip0_29_2)">
<path d="M98.5487 10.2625H56.5488V85.7375H98.5487V10.2625Z" fill="#FF5F00"/>
<path d="M59.2156 48C59.209 40.7313 60.8561 33.5562 64.0324 27.0181C67.2086 20.48 71.8307 14.7502 77.5487 10.2625C70.4678 4.69672 61.9637 1.23543 53.0086 0.274263C44.0534 -0.686899 35.0085 0.890817 26.9077 4.82715C18.8069 8.76349 11.9769 14.8996 7.19855 22.5341C2.42019 30.1686 -0.11377 38.9935 -0.11377 48C-0.11377 57.0066 2.42019 65.8315 7.19855 73.466C11.9769 81.1005 18.8069 87.2366 26.9077 91.1729C35.0085 95.1093 44.0534 96.687 53.0086 95.7258C61.9637 94.7647 70.4678 91.3034 77.5487 85.7376C71.8307 81.2498 67.2087 75.52 64.0324 68.9819C60.8562 62.4438 59.209 55.2688 59.2156 48V48Z" fill="#EB001B"/>
<path d="M155.209 48C155.209 57.0065 152.676 65.8313 147.897 73.4658C143.119 81.1003 136.29 87.2364 128.189 91.1728C120.088 95.1092 111.044 96.687 102.089 95.7258C93.1335 94.7647 84.6296 91.3034 77.5488 85.7376C83.2618 81.2453 87.8803 75.5146 91.056 68.9775C94.2318 62.4405 95.8819 55.2677 95.8819 48C95.8819 40.7324 94.2318 33.5596 91.056 27.0225C87.8803 20.4855 83.2618 14.7548 77.5488 10.2625C84.6296 4.69669 93.1335 1.2354 102.089 0.27425C111.044 -0.6869 120.088 0.890886 128.189 4.82726C136.29 8.76364 143.119 14.8998 147.897 22.5343C152.676 30.1688 155.209 38.9936 155.209 48V48Z" fill="#F79E1B"/>
<path d="M150.629 77.7436V76.1984H151.252V75.8835H149.666V76.1984H150.289V77.7436H150.629ZM153.71 77.7436V75.8805H153.224L152.664 77.1619L152.104 75.8805H151.618V77.7436H151.961V76.3382L152.486 77.5498H152.842L153.367 76.3352V77.7436H153.71Z" fill="#F79E1B"/>
</g>
<defs>
<clipPath id="clip0_29_2">
<rect width="155" height="96" fill="white"/>
</clipPath>
</defs>
</svg>
